<svg>
    <symbol id="background-vector--left" viewBox="0 0 600 57" fill="none"
        xmlns="http://www.w3.org/2000/svg">
        <path d="M249.6 23.7L0 0V57H249.6H600L249.6 0V23.7Z" fill="white" />
    </symbol>

    <symbol id="background-vector--right" viewBox="0 0 600 57" fill="none"
        xmlns="http://www.w3.org/2000/svg">
        <path d="M350.4 23.7V0L0 57H350.4H599.9V0L350.4 23.7Z" fill="white" />
    </symbol>

    <symbol version="1.0" id="icon-like" xmlns="http://www.w3.org/2000/svg"
        xmlns:xlink="http://www.w3.org/1999/xlink" x="0px" y="0px" viewBox="0 0 22 20"
        enable-background="new 0 0 22 20" xml:space="preserve">
        <g id="Page-1">
          <g id="Core" transform="translate(-295.000000, -464.000000)">
            <g id="thumb-up" transform="translate(295.000000, 464.000000)">
              <path id="Shape" d="M12.383,3.646l-0.637,2.929L11.219,9H13.7h6.2v2c0,0.018,0,0.037,0.001,0.058L17,18H8V8.029 l0.014-0.015L12.383,3.646 M2,10v8V10 M13.2,0L6.6,6.6C6.2,6.9,6,7.4,6,8v10c0,1.1,0.9,2,2,2h9c0.8,0,1.5-0.5,1.8-1.2l3-7.1 C21.9,11.5,21.9,11.2,21.9,11V9H22c0-1.1-0.9-2-2-2h-6.3l1-4.6V2.1c0-0.4-0.2-0.8-0.4-1.1L13.2,0L13.2,0z M4,8H0v12h4V8L4,8z M22,9c0,0.033,0,0.044,0,0.044V9L22,9z"/>
            </g>
          </g>
        </g>
    </symbol>

    <symbol id="htmlacademy" xmlns="http://www.w3.org/2000/svg" viewBox="10 10 40 40">
        <path
            d="M30.2 5h-.2l-19.7 2.1v36.2l19.7 11.7 19.7-11.7v-36.2l-19.5-2.1zm17 36.8l-17.2 10.2-17.2-10.2v-14.8l17.1 10.2v1.8l-11.7-7v1.8l11.8 7.1v1.9l-11.8-7v1.8l11.8 7 11.9-7.1v-7.6l5.3-3.2v15.1zm-.1-17l-4.7 2.8-2.2 1.3-10.3-6.1v1.8l8.8 5.3h-.1l-.2.1-1.3.7-7.3-4.3v1.8l5.8 3.4-1.4.9-4.3-2.6v1.8l2.9 1.7-2.9 1.7-17-10.1 17-10.2 17.2 10zm.1-1.8l-17.3-10.2-17.1 10.2v-13.6l17.2-1.8 17.2 1.8v13.6z" />
    </symbol>

    <symbol version="1.1" id="icon-burger" xmlns="http://www.w3.org/2000/svg"
        xmlns:xlink="http://www.w3.org/1999/xlink" x="0px" y="0px" viewBox="0 0 76.166 68.959"
        enable-background="new 0 0 76.166 68.959" xml:space="preserve">
        <g>
          <path d="M71.914,46.042H4.252C1.914,46.042,0,47.955,0,50.294v3.454C0,56.086,1.914,58,4.252,58h0.956v1.037 c0,5.457,4.464,9.922,9.921,9.922h45.908c5.456,0,9.921-4.465,9.921-9.922V58h0.956c2.339,0,4.252-1.914,4.252-4.252v-3.454 C76.166,47.955,74.253,46.042,71.914,46.042z M67.958,59.037c0,3.815-3.104,6.922-6.921,6.922H15.129 c-3.816,0-6.921-3.104-6.921-6.922V58h59.75V59.037z M73.166,53.748c0,0.679-0.573,1.252-1.252,1.252H4.252 C3.573,55,3,54.427,3,53.748v-3.454c0-0.679,0.573-1.252,1.252-1.252h67.662c0.679,0,1.252,0.573,1.252,1.252V53.748z"/>
          <polygon points="16.162,37.856 21.635,41.856 27.112,37.856 32.591,41.856 38.069,37.856 43.548,41.856 49.026,37.856 54.505,41.856 59.985,37.856 65.474,41.856 71.842,37.212 70.074,34.788 65.474,38.144 59.985,34.144 54.505,38.144 49.026,34.143 43.548,38.144 38.069,34.143 32.591,38.144 27.112,34.143 21.636,38.144 16.163,34.142 10.686,38.144 6.093,34.789 4.323,37.211 10.686,41.856 	"/>
          <path d="M70.888,31.094c0.041-0.61,0.055-2.616,0.037-3C70.242,12.476,55.804,0,38.083,0C20.363,0,5.924,12.476,5.241,28.094 c-0.017,0.384-0.004,2.389,0.039,3H70.888z M38.083,3c16.031,0,29.15,11.154,29.842,25.094H8.241C8.933,14.154,22.051,3,38.083,3z"/>
          <circle cx="38.083" cy="15.042" r="2"/>
          <circle cx="30.083" cy="10.083" r="2"/>
          <circle cx="46.083" cy="10.083" r="2"/>
        </g>
    </symbol>

    <symbol version="1.1" id="icon-mail" xmlns="http://www.w3.org/2000/svg"
        xmlns:xlink="http://www.w3.org/1999/xlink" x="0px" y="0px"
        viewBox="0 0 16 16" enable-background="new 0 0 16 16" xml:space="preserve">
        <path d="M8,10c-0.266,0-0.5-0.094-1-0.336L0,6v7c0,0.55,0.45,1,1,1h14c0.55,0,1-0.45,1-1V6L9,9.664C8.5,9.906,8.266,10,8,10z M15,2 H1C0.45,2,0,2.45,0,3v0.758l8,4.205l8-4.205V3C16,2.45,15.55,2,15,2z"/>
    </symbol>

    <symbol version="1.1" id="icon-map-maker" xmlns="http://www.w3.org/2000/svg"
        xmlns:xlink="http://www.w3.org/1999/xlink" x="0px" y="0px"
        viewBox="0 0 27 27" enable-background="new 0 0 27 27" xml:space="preserve">
        <circle fill="#FFFFFF" cx="13.5" cy="13.5" r="13.5"/>
        <circle fill="#81B3D3" cx="13.5" cy="13.5" r="8.361"/>
    </symbol>

    <symbol version="1.0" id="icon-cross" xmlns="http://www.w3.org/2000/svg"
        xmlns:xlink="http://www.w3.org/1999/xlink" x="0px" y="0px" viewBox="0 0 22.199 22.199"
        enable-background="new 0 0 22.199 22.199"
        xml:space="preserve">
        <polygon points="22.199,2.804 19.396,0 11.1,8.297 2.804,0 0,2.803 8.297,11.1 0,19.396 2.803,22.199 11.1,13.902 19.396,22.199 22.199,19.396 13.903,11.1 "/>
    </symbol>

    <symbol version="1.0" id="icon-facebook" xmlns="http://www.w3.org/2000/svg"
        xmlns:xlink="http://www.w3.org/1999/xlink" x="0px" y="0px"
        viewBox="0 0 8.672 18.944" enable-background="new 0 0 8.672 18.944" xml:space="preserve">
        <path d="M6.275,3.356c0.799,0,1.599,0,2.398,0c0-1.119,0-2.237,0-3.356c-0.959,0-1.92,0-2.878,0C2.656,0.181,1.54,2.387,1.948,6.114 H0v3.518h1.959c0,3.104,0,6.208,0,9.312c1.279,0,2.559,0,3.837,0c0-3.104,0-6.208,0-9.312h2.857V6.114H5.787 C5.765,5.069,5.75,3.709,6.275,3.356z"/>
    </symbol>

    <symbol version="1.1" id="icon-gift" xmlns="http://www.w3.org/2000/svg"
        xmlns:xlink="http://www.w3.org/1999/xlink" x="0px" y="0px"
        viewBox="0 0 63 75.084" enable-background="new 0 0 63 75.084" xml:space="preserve">
        <path d="M60.165,22.23h-0.103H35.758c13.604-6.815,14.688-11.115,14.188-13.52c-1.145-3.916-5.604-6.938-9.848-5.341 c-5.484,2.063-7.029,10.262-8.514,16.19C29.69,13.561,27.858,5.91,23.573,2.034c-1.242-1.125-3.049-2.237-5.676-2.003 c-3.965,0.352-9.652,5.317-7.344,10.849c2.217,5.313,9.539,8.67,14.354,11.35H2.834C1.275,22.23,0,23.506,0,25.065V36.25 c0,1.559,1.275,2.834,2.835,2.834h0.27v35.999h56.958V39.084h0.104c1.561,0,2.835-1.275,2.835-2.834V25.065 C63,23.506,61.725,22.23,60.165,22.23z M41.766,5.873c2.07-0.306,4.907,1.283,5.176,3.171c0.386,2.723-3.349,5.192-5.008,6.343 c-2.484,1.723-4.853,2.611-7.178,4.006C35.628,15.748,37.268,6.539,41.766,5.873z M19.232,15.721 c-2.19-1.467-6.444-4.378-6.342-7.678c0.11-3.552,5.655-6.491,8.68-3.839c3.797,3.331,5.625,10.972,7.01,16.357 C25.381,19.042,22.35,17.808,19.232,15.721z M25.114,72.147H6.042V39.084h19.072V72.147z M25.114,36.084H3V25.23h22.114V36.084z  M35.115,72.146h-7.063V25.23h7.063V72.146z M57.125,72.147H38.053V39.084h19.072V72.147z M60,36.084H38.053V25.23H60V36.084z"/>
    </symbol>

    <symbol version="1.1" id="icon-house" xmlns="http://www.w3.org/2000/svg"
        xmlns:xlink="http://www.w3.org/1999/xlink" x="0px" y="0px" viewBox="0 0 74.695 72.346"
        enable-background="new 0 0 74.695 72.346"
        xml:space="preserve">
        <g>
          <path d="M29.503,65.345h16V41.407h-16V65.345z M42.566,62.407H32.441V44.345h10.125V62.407z"/>
          <path d="M72.62,39.44l2.075-2.078l-9.907-9.913V0.47H50.974v13.161L37.349,0L0,37.363l2.077,2.078l7.832-7.832v37.799H5.971v2.938 h63.875v-2.938h-5.059v-37.8L72.62,39.44z M53.913,3.408h7.938v21.104l-7.938-7.94V3.408z M61.85,69.407H12.846V28.671 L37.348,4.169L61.85,28.671V69.407z"/>
          <path d="M29.753,27.21c0,4.28,3.47,7.75,7.75,7.75s7.75-3.47,7.75-7.75c0-4.279-3.47-7.75-7.75-7.75S29.753,22.93,29.753,27.21z M37.503,22.241c2.745,0,4.97,2.225,4.97,4.97s-2.225,4.971-4.97,4.971s-4.97-2.226-4.97-4.971S34.759,22.241,37.503,22.241z"/>
          <rect x="16.909" y="41.407" width="3" height="3.938"/>
          <rect x="22.846" y="41.407" width="3" height="3.938"/>
          <rect x="16.909" y="47.407" width="3" height="3.938"/>
          <rect x="22.846" y="47.407" width="3" height="3.938"/>
          <rect x="48.846" y="41.407" width="3" height="3.938"/>
          <rect x="54.784" y="41.407" width="3" height="3.938"/>
          <rect x="48.846" y="47.407" width="3" height="3.938"/>
          <rect x="54.784" y="47.407" width="3" height="3.938"/>
        </g>
    </symbol>

    <symbol version="1.0" id="icon-menu" xmlns="http://www.w3.org/2000/svg"
        xmlns:xlink="http://www.w3.org/1999/xlink" x="0px" y="0px" viewBox="0 0 22.928 21.982"
        enable-background="new 0 0 22.928 21.982"
        xml:space="preserve">
        <g>
          <rect width="22.928" height="3.964"/>
          <rect y="9.009" width="22.928" height="3.964"/>
          <rect y="18.018" width="22.928" height="3.964"/>
        </g>
    </symbol>

    <symbol version="1.0" id="icon-phone" xmlns="http://www.w3.org/2000/svg"
        xmlns:xlink="http://www.w3.org/1999/xlink" x="0px" y="0px"
        viewBox="0 0 18 18" enable-background="new 0 0 18 18" xml:space="preserve">
        <g id="Page-1">
          <g id="Icons-Communication" transform="translate(-85.000000, -126.000000)">
            <g id="phone" transform="translate(85.000000, 126.000000)">
              <path id="Shape" fill="#010101" d="M3.6,7.8C5,10.6,7.4,12.9,10.2,14.4l2.2-2.2c0.3-0.3,0.699-0.4,1-0.2c1.1,0.4,2.3,0.6,3.6,0.6 c0.6,0,1,0.4,1,1V17c0,0.6-0.4,1-1,1C7.6,18,0,10.4,0,1c0-0.6,0.4-1,1-1h3.5c0.6,0,1,0.4,1,1c0,1.2,0.2,2.4,0.6,3.6 c0.1,0.3,0,0.7-0.2,1L3.6,7.8L3.6,7.8z"/>
            </g>
          </g>
        </g>
    </symbol>

    <symbol version="1.0" id="icon-tick" xmlns="http://www.w3.org/2000/svg"
        xmlns:xlink="http://www.w3.org/1999/xlink" x="0px" y="0px" viewBox="0 0 23.049 16.249"
        enable-background="new 0 0 23.049 16.249"
        xml:space="preserve">
        <path d="M22.801,1.299L21.75,0.248c-0.331-0.331-0.872-0.331-1.203,0L8.693,12.102L2.502,5.911c-0.331-0.331-0.872-0.331-1.203,0 L0.248,6.962c-0.331,0.331-0.331,0.872,0,1.202l7.837,7.837c0.167,0.167,0.388,0.248,0.608,0.246c0.22,0.002,0.44-0.079,0.608-0.246 l13.5-13.5C23.132,2.171,23.132,1.63,22.801,1.299z"/>
    </symbol>

    <symbol version="1.0" id="icon-twitter" xmlns="http://www.w3.org/2000/svg"
        xmlns:xlink="http://www.w3.org/1999/xlink" x="0px" y="0px"
        viewBox="0 0 17.5 14.663" enable-background="new 0 0 17.5 14.663" xml:space="preserve">
        <g id="W6EeEF_1_">
          <g>
            <path fill-rule="evenodd" clip-rule="evenodd" d="M11.283,0.153c1.736-0.484,3.074,0.264,3.685,1.15 c0.694-0.225,1.372-0.47,2.072-0.69c-0.004,0.841-0.538,1.478-0.883,1.728C16.861,2.506,17.5,1.86,17.5,1.86 c-0.175,0.977-1.035,1.746-1.611,1.977C15.65,10.429,12.617,14.793,5.507,14.66c-0.538,0,0.077,0-0.46,0 c-0.422,0-4.29-0.45-5.047-1.843c2.341,0.192,4.011-0.412,4.835-1.15c-0.989-0.293-2.761-0.464-3.07-2.881 c0.362,0.105,0.583,0.223,1.228,0.117C1.757,8.067,0.385,7.366,0.461,5.218c0.294,0.319,1.1,0.523,1.381,0.461 c-0.725-0.235-2.03-3.281-0.921-4.836C2.794,2.655,4.769,4.364,8.29,4.528C8.506,2.288,9.461,0.788,11.283,0.153z"/>
          </g>
        </g>
    </symbol>

    <symbol version="1.0" id="icon-video-fullscreen" xmlns="http://www.w3.org/2000/svg"
        xmlns:xlink="http://www.w3.org/1999/xlink" x="0px" y="0px"
        viewBox="0 0 20 20" enable-background="new 0 0 20 20" xml:space="preserve">
        <g>
          <polygon fill="#454545" points="0,0 0,3 0,6 3,6 3,3 6,3 6,0 3,0"/>
          <polygon fill="#454545" points="3,14 0,14 0,17 0,20 3,20 6,20 6,17 3,17"/>
          <polygon fill="#454545" points="17,0 14,0 14,3 17,3 17,6 20,6 20,3 20,0"/>
          <polygon fill="#454545" points="17,17 14,17 14,20 17,20 20,20 20,17 20,14 17,14"/>
        </g>
    </symbol>

    <symbol version="1.0" id="icon-video-replay" xmlns="http://www.w3.org/2000/svg"
        xmlns:xlink="http://www.w3.org/1999/xlink" x="0px" y="0px"
        viewBox="0 0 16 20" enable-background="new 0 0 16 20" xml:space="preserve">
        <path d="M8,4V0L3,5l5,5V6c3.315,0,6,2.686,6,6s-2.685,6-6,6s-6-2.686-6-6H0c0,4.42,3.58,8,8,8s8-3.58,8-8S12.42,4,8,4z"/>
    </symbol>

    <symbol version="1.0" id="icon-video-subtitles" xmlns="http://www.w3.org/2000/svg"
        xmlns:xlink="http://www.w3.org/1999/xlink" x="0px" y="0px"
        viewBox="0 0 32 20" enable-background="new 0 0 32 20" xml:space="preserve">
        <path fill="#454545" d="M29,0H3C1.35,0,0,1.35,0,3v14c0,1.65,1.35,3,3,3h26c1.65,0,3-1.35,3-3V3C32,1.35,30.65,0,29,0z M14.403,15.854c-0.545,0.108-1.104,0.164-1.678,0.164c-0.694,0-1.354-0.107-1.976-0.323c-0.623-0.214-1.172-0.562-1.646-1.041 s-0.852-1.103-1.133-1.868C7.69,12.02,7.551,11.091,7.551,10c0-1.134,0.157-2.085,0.471-2.851c0.315-0.768,0.723-1.384,1.224-1.854  c0.502-0.468,1.062-0.804,1.679-1.008c0.616-0.204,1.233-0.307,1.852-0.307c0.66,0,1.22,0.045,1.678,0.134  c0.457,0.087,0.835,0.192,1.133,0.313L15.14,6.347c-0.254-0.121-0.555-0.209-0.902-0.265C13.891,6.027,13.47,6,12.973,6 c-0.915,0-1.649,0.325-2.206,0.977c-0.558,0.651-0.836,1.663-0.836,3.031c0,0.598,0.067,1.142,0.199,1.632  c0.132,0.493,0.334,0.913,0.603,1.26c0.271,0.349,0.607,0.619,1.01,0.812c0.402,0.193,0.867,0.29,1.396,0.29  c0.496,0,0.915-0.049,1.257-0.148c0.342-0.099,0.639-0.227,0.893-0.38l0.463,1.841C15.398,15.564,14.949,15.745,14.403,15.854z   M23.101,15.854c-0.545,0.108-1.105,0.164-1.678,0.164c-0.694,0-1.354-0.107-1.976-0.323c-0.623-0.214-1.172-0.562-1.646-1.041  s-0.852-1.103-1.133-1.868c-0.281-0.767-0.421-1.695-0.421-2.786c0-1.134,0.157-2.085,0.471-2.851  c0.314-0.768,0.723-1.384,1.223-1.854c0.502-0.468,1.062-0.804,1.68-1.008c0.616-0.204,1.233-0.307,1.851-0.307 c0.661,0,1.221,0.045,1.678,0.134c0.458,0.087,0.836,0.192,1.133,0.313l-0.446,1.918c-0.253-0.121-0.554-0.209-0.901-0.265  C22.588,6.027,22.166,6,21.67,6c-0.915,0-1.649,0.325-2.206,0.977c-0.558,0.651-0.836,1.663-0.836,3.031  c0,0.598,0.067,1.142,0.199,1.632c0.132,0.493,0.334,0.913,0.603,1.26c0.271,0.349,0.606,0.619,1.009,0.812 c0.402,0.193,0.868,0.29,1.396,0.29c0.497,0,0.915-0.049,1.257-0.148c0.342-0.099,0.64-0.227,0.894-0.38l0.463,1.841  C24.096,15.564,23.646,15.745,23.101,15.854z"/>
    </symbol>

    <symbol version="1.0" id="icon-youtube" xmlns="http://www.w3.org/2000/svg"
        xmlns:xlink="http://www.w3.org/1999/xlink" x="0px" y="0px" viewBox="0 0 19.979 14.015"
        enable-background="new 0 0 19.979 14.015"
        xml:space="preserve">
        <path d="M17.145,0H2.835C1.275,0,0,1.275,0,2.835v8.345c0,1.56,1.275,2.835,2.835,2.835h14.31c1.56,0,2.835-1.275,2.835-2.835V2.835 C19.979,1.275,18.704,0,17.145,0z M7.036,10.392V3.623l6.769,3.384L7.036,10.392z"/>
    </symbol>

    <symbol version="1.1" id="logo-htmlacademy" xmlns="http://www.w3.org/2000/svg"
        xmlns:xlink="http://www.w3.org/1999/xlink" x="0px" y="0px"
        viewBox="0 0 26.943 34.09" enable-background="new 0 0 26.943 34.09" xml:space="preserve">
        <path d="M13.62,0.017L13.472,0L0,1.412v24.661l13.473,8.017l13.43-7.99l0.042-0.025V1.412L13.62,0.017z M25.019,12.127L13.495,5.334 L13.494,5.23l-0.087,0.05l-0.088-0.056v0.109L1.925,12.118V3.147l11.548-1.212l11.547,1.212V12.127z M13.405,6.787L24.923,13.5 l-4.479,2.64l-7.093-4.221l-0.014,1.415l5.904,3.513l-0.86,0.507l-5.03-2.992l-0.014,1.415l3.827,2.275l-0.782,0.523l-3.031-1.787 l-0.014,1.413l1.853,1.091l-1.8,1.081L2.034,13.622L13.405,6.787z M1.925,15.127l11.411,6.791l0.016,1.044L5.41,18.234L5.395,19.65 l7.979,4.795l0.018,1.076l-7.973-4.74l-0.013,1.414l8.021,4.822l0.046,0.025l8.143-4.872l-0.011-5.177l3.415-2.036v10.021 L13.472,31.85L1.925,24.979V15.127z"/>
    </symbol>
    
    <symbol id="welcome-gorgeous" viewBox="0 0 158 52" fill="none" xmlns="http://www.w3.org/2000/svg">
      <path d="M39.385 42.8044L39.2623 42.9267C38.4031 43.844 37.4211 44.272 36.5006 44.272L38.219 41.2757C39.3236 39.3801 38.2803 37.5456 36.5619 37.5456C35.1504 37.5456 34.0457 38.096 33.0024 39.9304L32.0819 41.5203L31.3454 42.8044L31.2227 42.9267C29.8725 44.4555 28.5837 45.6785 27.7859 45.6785C27.3563 45.6785 27.1722 45.3727 27.6018 44.7001L31.5295 37.8514H33.0024L33.5548 36.9953H32.0205L33.7389 33.999H31.8977L30.1793 36.9953H28.5223L27.97 37.8514H29.627L25.9447 44.2109C25.1469 45.5562 25.6993 46.8403 27.1722 46.8403C28.2155 46.8403 29.4429 46.0454 30.5476 44.9447C30.5476 47.2683 33.8002 47.7575 35.7641 45.2504H36.1937C37.2984 45.2504 39.0168 44.5778 39.9374 43.4771C39.9374 43.1713 39.6305 42.9267 39.385 42.8044ZM35.4573 42.9267H35.3959C34.7822 42.9267 34.2912 43.4159 34.2912 44.0274C34.2912 44.272 34.3526 44.4555 34.4753 44.6389V44.7001C33.6161 46.1677 31.5295 45.9231 32.5728 43.9663L33.9844 41.5815L34.8436 40.1139C36.1323 37.9125 37.9121 38.7686 36.8074 40.6642L35.4573 42.9267Z" fill="#766458"/>
      <path d="M64.854 42.8042L64.7312 42.9265C63.3811 44.4552 61.7241 45.6782 60.4353 45.6782C59.3306 45.6782 58.6555 44.9444 59.4533 43.4768L59.6374 43.1711C60.8035 43.6603 63.0742 43.4157 64.4244 41.0309L64.6699 40.6028C65.6518 38.8907 64.7312 37.6677 63.197 37.6677C61.7241 37.6677 60.558 38.4626 59.7602 39.8079L57.9804 42.8654L57.8577 42.9877C56.5075 44.5164 55.2187 45.7394 54.4209 45.7394C53.9913 45.7394 53.8072 45.4336 54.2368 44.761L56.8757 40.1136C57.6736 38.7072 56.9371 37.7288 55.8938 37.7288C55.096 37.7288 54.2368 38.1569 53.3162 39.1353L56.262 34.0599H54.4209L49.3271 42.8042L49.2044 42.9265C47.8542 44.4552 46.5654 45.6782 45.7676 45.6782C45.338 45.6782 45.1539 45.3725 45.5835 44.6998L49.5112 37.8511H50.9841L51.5365 36.995H50.0022L51.7206 33.9987H49.8794L48.1611 36.995H46.504L45.9517 37.8511H47.6087L43.9265 44.2106C43.1286 45.5559 43.681 46.8401 45.1539 46.8401C45.8903 46.8401 46.6882 46.4732 47.486 45.8617L46.995 46.6566H48.8361L51.5978 41.8258C54.4209 38.2792 55.6483 38.7684 54.9119 40.1136L52.5184 44.2718C51.7206 45.6171 52.2729 46.9012 53.7458 46.9012C54.8505 46.9012 56.0779 46.0451 57.1826 44.9444C57.244 46.1063 58.2259 46.9012 59.6988 46.9012C61.7854 46.9012 63.872 45.3113 65.3449 43.538C65.4063 43.1711 65.0995 42.9265 64.854 42.8042ZM61.3558 40.2359C62.3991 38.4015 64.3016 38.7072 63.197 40.6028L62.9515 41.0309C62.0923 42.4985 60.8649 42.4985 60.1898 42.2539L61.3558 40.2359Z" fill="#766458"/>
      <path d="M131.81 42.8044L131.687 42.9267C131.012 43.7217 130.214 44.3943 129.478 44.9446C130.091 43.1713 129.907 40.5419 131.073 38.1571L129.723 37.4233C128.987 38.4628 127.33 40.8476 125.611 42.8044L125.488 42.9267C124.138 44.4554 122.849 45.6784 122.052 45.6784C121.622 45.6784 121.438 45.3727 121.868 44.7L125.795 37.8513H123.954L120.701 43.5382C119.29 44.8223 118.247 45.495 117.878 45.3727C117.449 45.1892 117.878 44.5166 118.124 44.0886L121.683 37.8513H119.842L116.958 42.8044L116.835 42.9267C115.976 43.844 114.994 44.272 114.073 44.272L115.792 41.2757C116.896 39.3801 115.853 37.5456 114.135 37.5456C112.723 37.5456 111.619 38.0959 110.575 39.9304L109.655 41.5203L108.918 42.8044L108.796 42.9267C107.445 44.4554 105.788 45.6784 104.5 45.6784C103.395 45.6784 102.72 44.9446 103.518 43.4771L103.702 43.1713C104.868 43.6605 107.138 43.4159 108.489 41.0311L108.734 40.6031C109.716 38.8909 108.796 37.6679 107.261 37.6679C105.788 37.6679 104.622 38.4628 103.824 39.8081L102.045 42.8656L101.922 42.9879C100.388 44.7612 99.0989 45.8619 97.626 46.4734L101.738 39.4412H100.633C100.633 38.7074 99.8353 37.6679 98.7307 37.6679C97.7487 37.6679 96.3372 38.4628 95.6007 39.8081L93.821 42.8656L93.6982 42.9879C92.3481 44.5166 91.0593 45.7396 90.2615 45.7396C89.8319 45.7396 89.6477 45.4338 90.0773 44.7612L91.9185 41.5814C92.5322 40.4808 92.2253 39.8081 91.673 39.0743L90.6297 37.8513C90.3842 37.5456 90.3842 37.1175 90.7524 36.8118L89.7705 35.7723C88.7272 36.6895 88.6658 37.729 89.2795 38.5851L89.4636 38.7686C88.6658 39.9304 87.5611 41.4591 86.3337 42.8656L86.211 42.9879C85.3518 43.9051 84.3698 44.3332 83.4493 44.3332L85.1677 41.3368C86.2723 39.4412 85.229 37.6067 83.5106 37.6067C82.0991 37.6067 80.9944 38.1571 79.9511 39.9916L79.0306 41.5814L78.2941 42.8656L78.1714 42.9879C76.6371 44.7612 75.3483 45.8619 73.8754 46.4734L77.9872 39.4412H76.8826C76.8826 38.7074 76.0847 37.6679 74.9801 37.6679C73.9981 37.6679 72.5866 38.4628 71.8501 39.8081L69.2726 44.272C68.4747 45.6173 69.0271 46.9014 70.5 46.9014C70.9909 46.9014 71.6047 46.6568 72.2797 46.2899L71.7888 47.146C69.3339 47.8798 67.7383 48.9193 67.7383 50.2646C67.7383 52.038 70.4386 52.4048 71.7888 50.1423L73.2003 47.7575C74.6732 47.3295 76.0847 46.4122 77.619 45.0058C77.619 47.3295 80.8717 47.8187 82.8356 45.3115H83.2652C84.3698 45.3115 86.0882 44.6389 87.0088 43.5382C87.868 42.4987 88.6044 41.5814 90.0773 39.6247L90.3228 39.9304C90.5683 40.2362 90.6297 40.6031 90.4456 40.9699L88.4817 44.3332C87.6839 45.6784 88.2362 46.9626 89.7091 46.9626C90.6297 46.9626 91.673 46.3511 92.6549 45.495C92.6549 46.3511 93.2073 46.9626 94.2506 46.9626C94.7415 46.9626 95.3553 46.718 96.0303 46.3511L95.6007 47.0849C93.1459 47.8187 91.5502 48.8582 91.5502 50.2035C91.5502 51.9768 94.2506 52.3437 95.6007 50.0812L97.0123 47.6964C98.4852 47.2072 99.9581 46.3511 101.492 44.8835C101.554 46.0453 102.474 46.8403 104.009 46.8403C105.481 46.8403 107.016 45.9842 108.243 44.8835C108.182 47.2683 111.496 47.7575 113.46 45.2504H113.889C114.442 45.2504 115.239 45.0669 115.915 44.7C115.424 45.9842 115.853 46.8403 116.896 46.8403C117.878 46.8403 119.044 45.923 119.904 45.0669C119.72 46.0453 120.333 46.8403 121.499 46.8403C123.034 46.8403 124.752 45.2504 126.286 43.4771C127.33 42.2541 128.25 40.9699 128.925 40.1139C128.189 42.0095 128.618 45.4338 126.839 45.4338C126.225 45.4338 125.979 44.7612 125.979 44.7612L124.813 45.3727C124.813 45.3727 125.12 46.8403 126.839 46.8403C127.023 46.8403 127.145 46.8403 127.33 46.7791H127.391C129.293 46.5345 131.135 45.0669 132.485 43.4771C132.423 43.1713 132.117 42.8656 131.81 42.8044ZM105.481 40.2362C106.525 38.4017 108.427 38.7074 107.323 40.6031L107.077 41.0311C106.218 42.4987 104.991 42.4987 104.315 42.2541L105.481 40.2362ZM70.3772 49.7754C70.009 50.4481 69.3953 50.3869 69.3953 49.8366C69.3953 49.3474 69.8249 48.797 71.2364 48.2467L70.3772 49.7754ZM71.2364 45.6784C70.8068 45.6784 70.6227 45.3727 71.0523 44.7L73.6299 40.2362C74.6118 38.524 76.5757 38.952 75.6551 40.6031L74.2436 43.049C73.1389 44.8223 71.9729 45.6784 71.2364 45.6784ZM82.5287 42.9267H82.4673C81.8536 42.9267 81.3627 43.4159 81.3627 44.0274C81.3627 44.272 81.424 44.4555 81.5468 44.6389V44.7C80.6876 46.1676 78.601 45.923 79.6443 43.9663L81.0558 41.5814L81.915 40.1139C83.2038 37.9125 84.9835 38.7686 83.8789 40.6642L82.5287 42.9267ZM94.0665 49.7754C93.6982 50.4481 93.0845 50.3869 93.0845 49.8366C93.0845 49.3474 93.5141 48.797 94.9256 48.2467L94.0665 49.7754ZM94.9256 45.6784C94.4961 45.6784 94.3119 45.3727 94.7415 44.7L97.3191 40.2362C98.3011 38.524 100.265 38.952 99.3444 40.6031L97.9328 43.049C96.8281 44.8223 95.6621 45.6784 94.9256 45.6784ZM113.03 42.9267H112.969C112.355 42.9267 111.864 43.4159 111.864 44.0274C111.864 44.272 111.925 44.4555 112.048 44.6389V44.7C111.189 46.1676 109.102 45.923 110.146 43.9663L111.557 41.5814L112.416 40.1139C113.705 37.9125 115.485 38.7686 114.38 40.6642L113.03 42.9267Z" fill="#766458"/>
      <path d="M17.8437 40.8469H0.107422V42.0699H17.8437V40.8469Z" fill="#766458"/>
      <path d="M157.156 40.8469H139.42V42.0699H157.156V40.8469Z" fill="#766458"/>
      <path d="M38.0349 0H42.7605L42.024 27.456H33.1252L31.8978 16.1434L30.6704 27.456H21.7102L21.0351 0H25.6993L26.0675 22.7475H26.5585L29.5657 0H34.2299L37.2371 22.7475H37.728L38.0349 0Z" fill="#81B3D3"/>
      <path d="M57.5508 22.7475V27.5171H44.7243V0H57.5508V4.70849H49.3885V11.3126H55.8938V16.0211H49.3885V22.6864H57.5508V22.7475Z" fill="#81B3D3"/>
      <path d="M70.6842 22.7475V27.5171H59.4533V0H64.1175V22.7475H70.6842Z" fill="#81B3D3"/>
      <path d="M80.6263 17.3664L85.3519 16.2657V24.582C85.3519 26.1719 84.0017 27.456 82.4675 27.456H75.4098C73.8141 27.456 72.5253 26.1107 72.5253 24.582V2.87401C72.5253 1.28413 73.8141 0 75.4098 0H82.4675C84.0017 0 85.3519 1.28413 85.3519 2.87401V8.43859L80.6263 9.53928V4.64734H77.2509V22.6864H80.6263V17.3664Z" fill="#81B3D3"/>
      <path d="M98.117 0C99.6513 0 101.001 1.28413 101.001 2.87401V24.5208C101.001 26.1107 99.6513 27.3948 98.117 27.3948H91.0594C89.4637 27.3948 88.1749 26.0496 88.1749 24.5208V2.87401C88.1749 1.28413 89.4637 0 91.0594 0H98.117ZM96.2759 4.70849H92.9005V22.7475H96.2759V4.70849Z" fill="#81B3D3"/>
      <path d="M116.344 0H121.009V27.456H116.344V13.942L114.442 20.913H109.839L107.998 13.942V27.456H103.334V0H107.998L112.171 13.2694L116.344 0Z" fill="#81B3D3"/>
      <path d="M136.167 22.7475V27.5171H123.341V0H136.167V4.70849H128.005V11.3126H134.51V16.0211H128.005V22.6864H136.167V22.7475Z" fill="#81B3D3"/>
    </symbol>
    
    <symbol version="1.0" id="text-sedona" xmlns="http://www.w3.org/2000/svg" xmlns:xlink="http://www.w3.org/1999/xlink" x="0px" y="0px" viewBox="0 0 459.754 79.805" enable-background="new 0 0 459.754 79.805" xml:space="preserve">
      <g>
        <path fill="#FFFFFF" d="M44.466,21.738c-3.572-2.979-8.139-4.963-12.902-4.963c-3.572,0-8.338,2.084-8.338,6.253 c0,4.368,5.261,6.055,8.636,7.146l4.964,1.489C47.248,34.74,55.287,40,55.287,52.11c0,7.445-1.787,15.088-7.742,20.149 c-5.855,4.964-13.697,7.048-21.24,7.048c-9.43,0-18.661-3.177-26.305-8.537l8.338-15.683c4.865,4.269,10.621,7.742,17.271,7.742 c4.566,0,9.43-2.283,9.43-7.545c0-5.459-7.643-7.345-11.812-8.535C11.019,43.274,2.978,40.101,2.978,25.607 c0-15.188,10.818-25.112,25.807-25.112c7.543,0,16.775,2.382,23.426,6.154L44.466,21.738z"/>
        <path fill="#FFFFFF" d="M91.831,18.959v12.506h21.937v16.479H91.831v12.899h23.127v16.479H72.376V2.483h42.582V18.96L91.831,18.959 L91.831,18.959z"/>
        <path fill="#FFFFFF" d="M129.417,2.482h27.594c20.844,0,38.016,16.377,38.016,37.419c0,21.041-17.271,37.42-38.016,37.42h-27.594 V2.482z M148.872,60.846h4.367c11.612,0,21.539-6.352,21.539-20.942c0-13.4-8.834-20.943-21.341-20.943h-4.565V60.846z"/>
        <path fill="#FFFFFF" d="M286.873,38.513c0,24.219-17.371,41.292-41.394,41.292c-24.02,0-41.391-17.071-41.391-41.292 C204.089,15.881,223.941,0,245.479,0C267.019,0,286.873,15.881,286.873,38.513z M224.339,38.612 c0,12.905,9.529,22.333,21.141,22.333c11.613,0,21.144-9.43,21.144-22.333c0-10.323-9.526-19.752-21.144-19.752 C233.867,18.86,224.339,28.29,224.339,38.612z"/>
        <path fill="#FFFFFF" d="M297.238,2.482h19.454l35.636,45.757h0.196V2.482h19.453v74.839h-19.453L316.89,31.465h-0.197v45.856 h-19.454V2.482z"/>
        <path fill="#FFFFFF" d="M407.345,64.319l-5.16,13.002h-20.646l28.785-74.839h21.242l28.188,74.839h-20.745l-4.862-13.002H407.345z M420.945,25.609h-0.199l-8.039,23.824h16.178L420.945,25.609z"/>
      </g>
    </symbol>

    <symbol id="slogan" viewBox="0 0 181 49" fill="none" xmlns="http://www.w3.org/2000/svg">
      <path d="M21.2196 10.9259C25.9451 9.336 26.252 3.46567 21.6492 3.46567C20.3604 3.46567 18.8261 4.3829 17.7828 6.15623L11.5229 16.9796C11.2161 17.4688 10.9706 17.8969 10.6024 18.3249C9.00672 16.1235 9.43632 12.8215 11.707 11.3539L10.7865 10.1921C5.8768 13.3107 7.3497 22.2385 15.5121 22.2385C22.447 22.2385 25.6996 13.9222 21.2196 10.9259ZM15.4507 20.4651C14.0391 20.4651 12.9958 20.1594 12.0753 19.6702C12.5049 19.181 12.8731 18.6307 13.2413 18.0192L17.1691 11.2316L17.7828 11.2928C23.2448 12.4546 21.0968 20.4651 15.4507 20.4651ZM17.9669 9.88633L19.8694 6.64543C21.5878 3.71027 23.7358 5.42243 22.5697 7.62381C21.6492 9.33598 20.3604 9.82518 17.9669 9.88633Z" fill="white"/>
      <path d="M40.9196 18.4482C40.5514 19.7935 41.2878 20.9553 42.8221 20.9553C43.7427 20.9553 44.9087 20.3439 46.0748 19.4266C46.1975 20.3439 46.9339 20.9553 48.1 20.9553C49.3274 20.9553 50.6776 20.0993 52.0278 18.8763C51.7823 20.0993 52.3346 20.9553 53.5007 20.9553C54.7894 20.9553 56.201 19.7935 57.3057 18.754C57.0602 19.977 57.7966 20.9553 59.2695 20.9553C61.172 20.9553 63.3814 18.8763 65.3453 16.6749C65.3453 16.6138 65.2839 16.6137 65.2839 16.5526C66.5727 15.085 67.6774 13.4951 68.5366 12.3945C67.616 14.7793 68.107 19.1209 65.8976 19.1209C65.0998 19.1209 64.7929 18.2648 64.7929 18.2648L63.32 18.9986C63.32 18.9986 63.7496 20.8942 65.8976 20.8942C66.1431 20.8942 66.3272 20.8942 66.5727 20.833H66.6341C68.3525 20.5884 70.0095 19.5489 71.4824 18.2648C71.5437 19.7935 72.7098 20.8942 74.6123 20.8942C77.2513 20.8942 79.8902 18.8151 81.7927 16.6138C81.6086 16.308 81.2404 15.9411 80.9335 15.8188L80.7494 16.0023C79.0924 17.959 76.9444 19.4878 75.2874 19.4878C73.8758 19.4878 73.0166 18.5705 74.06 16.7361L74.3054 16.308C75.7784 16.9195 78.6014 16.6138 80.3812 13.6174L80.688 13.0671C81.9155 10.9269 80.7494 9.337 78.8469 9.337C76.9444 9.337 75.4715 10.3154 74.4896 12.0276L72.2188 15.88H72.1575L71.9733 16.0634C71.1142 17.0418 70.0708 17.959 69.1503 18.5705C69.8867 16.3692 69.7026 12.9448 71.1755 10.0096L69.4571 9.09241C68.4752 10.4377 66.3886 13.434 64.302 15.88L64.3633 15.9411L64.302 16.0634C62.6449 18.0202 60.9879 19.5489 59.9446 19.5489C59.4536 19.5489 59.1468 19.182 59.6991 18.2648L64.6702 9.58159H62.3381L58.2262 16.7972C56.4465 18.3871 55.0963 19.3043 54.6667 19.1209C54.1144 18.8763 54.6667 18.0202 54.9736 17.531L59.515 9.64275H57.1829L53.5007 16.0023C53.4393 15.9411 53.3779 15.9411 53.3165 15.88L53.1324 16.0634C51.4754 18.0202 49.8184 19.5489 48.7751 19.5489C48.2841 19.5489 47.9773 19.182 48.5296 18.2648L52.2732 11.7218H50.9231C50.9844 10.7434 50.0025 9.39815 48.4682 9.39815C47.2408 9.39815 45.461 10.3765 44.4791 12.0887L42.147 16.1246C42.0243 16.0023 41.9015 15.9411 41.7788 15.88L41.5947 16.0634C39.9377 18.0202 37.7897 19.5489 36.1326 19.5489C34.7211 19.5489 33.8619 18.6317 34.9052 16.7972L37.2987 12.6391C38.6489 10.3154 41.0423 10.7434 39.6308 13.1282L39.3239 13.6786H41.2264L41.5333 13.1282C42.7607 10.988 41.5947 9.39815 39.6922 9.39815C37.7897 9.39815 36.3168 10.3765 35.3348 12.0887L33.0027 16.0634C32.9414 16.0023 32.88 16.0023 32.8186 15.9411L32.6345 16.1246C30.9775 18.0813 28.8295 19.6101 27.1725 19.6101C25.7609 19.6101 24.9017 18.6928 25.9451 16.8583L26.1905 16.4303C27.6634 17.0418 30.4865 16.736 32.2663 13.7397L32.5731 13.1894C33.8005 11.0492 32.6345 9.45929 30.732 9.45929C28.8295 9.45929 27.3566 10.4377 26.3746 12.1499L23.9198 16.308C22.4469 18.754 23.7357 21.0776 26.4974 21.0776C28.5226 21.0776 30.6092 19.8547 32.2663 18.2648C32.2049 19.8547 33.4323 21.0776 35.3962 21.0776C37.3601 20.9553 39.2626 19.8547 40.9196 18.4482ZM76.5148 12.5779C77.865 10.2542 80.2584 10.6823 78.8469 13.0671L78.54 13.6174C77.4354 15.5131 75.9011 15.4519 75.0419 15.1462L76.5148 12.5779ZM43.2517 18.2648L46.5044 12.6391C47.7318 10.4988 50.248 11.0492 49.0819 13.1282L47.2408 16.308C45.8293 18.5094 44.4177 19.5489 43.4972 19.5489C43.0062 19.4878 42.6993 19.182 43.2517 18.2648ZM28.3999 12.5779C29.7501 10.2542 32.1435 10.6823 30.732 13.0671L30.4251 13.6174C29.3205 15.5131 27.7862 15.4519 26.927 15.1462L28.3999 12.5779Z" fill="white"/>
      <path d="M107.323 20.954C109.962 20.954 112.601 18.8749 114.503 16.6736C114.319 16.3678 113.951 16.0009 113.644 15.8786L113.46 16.0621C111.803 18.0189 109.655 19.5476 107.998 19.5476C106.587 19.5476 105.727 18.6303 106.771 16.7959L107.016 16.3678C108.489 16.9793 111.312 16.6736 113.092 13.6773L113.399 13.1269C114.626 10.9867 113.46 9.39682 111.558 9.39682C109.655 9.39682 108.182 10.3752 107.2 12.0874L104.93 15.9398C104.93 15.9398 104.868 15.9398 104.868 15.8786L104.684 16.0621C103.027 18.0189 101.37 19.5476 100.327 19.5476C99.8358 19.5476 99.5289 19.1807 100.081 18.2635L103.457 12.3931C104.439 10.6198 103.518 9.33566 102.229 9.33566C101.247 9.33566 100.143 9.886 98.9766 11.109L102.72 4.68832H100.327L93.76 16.0009C93.6987 15.9398 93.5759 15.8786 93.5145 15.8175L93.3304 16.0009C91.6734 17.9577 90.0164 19.4864 88.9731 19.4864C88.4821 19.4864 88.1753 19.1195 88.7276 18.2023L93.6986 9.5191H95.6012L96.2762 8.41843H94.3737L96.5831 4.62717H94.251L92.0416 8.41843H89.955L89.2799 9.5191H91.4279L86.7637 17.5908C85.7818 19.303 86.4569 20.8929 88.3594 20.8929C89.5254 20.8929 90.7528 20.1591 92.0416 19.0584L91.1211 20.6483H93.4532L97.0127 14.5333C100.572 10.0695 102.168 10.6198 101.186 12.332L98.1787 17.5908C97.1968 19.303 97.8719 20.8929 99.7744 20.8929C101.186 20.8929 102.782 19.7922 104.254 18.3246C104.254 19.8533 105.421 20.954 107.323 20.954ZM109.226 12.5766C110.576 10.2529 112.969 10.6809 111.558 13.0658L111.251 13.6161C110.146 15.5117 108.612 15.4506 107.753 15.1448L109.226 12.5766Z" fill="white"/>
      <path d="M177.9 15.8791L177.716 16.0626C176.059 18.0193 174.402 19.548 173.358 19.548C172.867 19.548 172.561 19.1812 173.113 18.2639L180.968 4.6888H178.636L175.199 10.5591C174.77 9.88649 174.033 9.33614 173.051 9.33614C171.824 9.33614 170.044 10.3145 169.062 12.0267L166.792 15.9402C166.73 15.9402 166.669 15.8791 166.669 15.8791L166.485 16.0626C164.828 18.0193 163.171 19.548 162.127 19.548C161.636 19.548 161.33 19.1812 161.882 18.2639L165.257 12.3936C166.239 10.6203 165.319 9.33614 164.03 9.33614C163.048 9.33614 161.943 9.88648 160.777 11.0483L161.636 9.51958H159.304L155.561 15.9402C155.499 15.8791 155.438 15.818 155.315 15.818L155.131 16.0014C153.474 17.9582 151.817 19.4869 150.774 19.4869C150.283 19.4869 149.976 19.12 150.528 18.2028L154.272 11.6598H153.106C153.167 10.6814 152.185 9.33614 150.651 9.33614C149.424 9.33614 147.644 10.3145 146.662 12.0267L144.391 15.8791L144.268 16.0014C142.611 17.9582 140.954 19.4869 139.911 19.4869C139.42 19.4869 139.113 19.12 139.666 18.2028L141.998 14.1669C142.796 12.7605 142.427 11.9656 141.691 11.0483L140.402 9.45843C140.095 9.03039 140.095 8.5412 140.525 8.11316L139.297 6.76787C137.947 7.9297 137.886 9.275 138.684 10.3145L138.868 10.5591C137.824 12.0267 136.474 13.9835 134.94 15.7568C135.001 15.818 135.063 15.8791 135.124 15.9402C133.222 18.1416 131.565 19.5481 129.724 20.343L132.669 15.3288H130.399L130.153 15.7568C128.926 17.897 127.514 19.4869 125.673 19.4869C124.077 19.4869 123.771 17.897 125.182 15.5122L125.857 14.3504C126.287 14.4115 126.716 14.4727 127.207 14.4727C135.492 14.4727 139.482 3.40466 132.178 3.40466C130.89 3.40466 129.355 4.3219 128.312 6.09522L124.691 12.3325C123.341 11.5987 122.604 10.3145 122.604 9.0304C122.604 7.92971 123.095 6.89016 124.077 6.09522L123.341 4.74995C121.684 5.91179 120.947 7.50167 120.947 9.09155C120.947 10.926 121.991 12.6994 123.893 13.6777L123.218 14.9007C121.561 17.7136 121.868 20.8322 125.182 20.8322C126.164 20.8322 127.023 20.5265 127.698 20.0984L127.085 21.1379C123.955 22.1163 121.991 23.3393 121.991 25.1126C121.991 27.314 125.428 27.8032 127.085 24.9292L128.864 21.8717C131.258 21.1379 133.651 19.4869 136.229 16.4906C136.167 16.4294 136.167 16.3683 136.106 16.246C137.149 15.023 138.009 13.8612 139.788 11.4764L140.095 11.8433C140.402 12.2102 140.525 12.6993 140.218 13.1885L137.763 17.469C136.781 19.1812 137.456 20.771 139.359 20.771C140.525 20.771 141.814 20.0372 143.041 18.9366C143.041 19.9761 143.716 20.771 145.066 20.771C145.987 20.771 147.153 20.1595 148.319 19.2423C148.442 20.1595 149.178 20.771 150.344 20.771C151.449 20.771 152.676 20.0984 153.842 19.0589L152.983 20.5264H155.315L158.875 14.3504C162.434 9.88647 164.03 10.498 162.987 12.2101L159.979 17.469C158.998 19.1812 159.673 20.771 161.575 20.771C162.802 20.771 164.153 19.915 165.503 18.7531C165.38 19.915 166.117 20.771 167.528 20.771C168.449 20.771 169.615 20.1595 170.781 19.2423C170.903 20.1595 171.64 20.771 172.806 20.771C174.708 20.771 176.918 18.692 178.882 16.4906C178.636 16.3683 178.207 16.0014 177.9 15.8791ZM130.092 7.19592C130.767 6.03409 131.565 5.48373 132.178 5.48373C135.861 5.48373 133.283 13.0051 127.207 13.0051H126.716L130.092 7.19592ZM125.121 24.6846C124.63 25.5407 123.832 25.4184 123.832 24.8069C123.832 24.1954 124.384 23.5228 126.164 22.8501L125.121 24.6846ZM149.485 16.246C148.073 18.4474 146.662 19.4869 145.741 19.4869C145.25 19.4869 144.944 19.12 145.496 18.2028L148.749 12.577C149.976 10.4368 152.492 10.9872 151.326 13.0662L149.485 16.246ZM172.008 16.1237C170.597 18.4474 169.185 19.4869 168.203 19.4869C167.712 19.4869 167.405 19.12 167.958 18.2028L171.21 12.577C172.438 10.4368 174.954 10.9872 173.788 13.0662L172.008 16.1237Z" fill="white"/>
      <path d="M100.143 37.8925L99.9586 38.076C98.3016 40.0328 96.6446 41.5615 95.6013 41.5615C95.1103 41.5615 94.8034 41.1946 95.3558 40.2774L98.7312 34.407C99.7131 32.6337 98.7925 31.3496 97.5038 31.3496C96.5218 31.3496 95.4171 31.8999 94.2511 33.0617L95.1103 31.533H92.7782L89.0346 38.0148C88.9118 37.9537 88.8504 37.8925 88.7277 37.8314L88.5436 38.0148C87.5003 39.1767 86.2115 39.727 85.0454 39.727L87.2548 35.9358C88.6663 33.4898 87.3775 31.2273 85.1682 31.2273C83.3884 31.2273 81.9769 31.9611 80.6267 34.2847L79.4607 36.2415L78.4787 37.9537C78.4174 37.8925 78.356 37.8925 78.2946 37.8314L78.1105 38.0148C76.208 40.2162 74.551 41.6226 72.7099 42.4176L79.0924 31.533H76.7603L72.6485 38.6875C70.8687 40.3385 69.4572 41.2557 69.0276 41.0723C68.4752 40.8277 69.0276 39.9716 69.3344 39.4824L73.8759 31.5942H71.5438L67.8002 38.0148C67.7388 37.9537 67.6774 37.9537 67.6161 37.8925L67.4319 38.076C65.7749 40.0328 64.1179 41.5615 63.0746 41.5615C62.5836 41.5615 62.2768 41.1946 62.8291 40.2774L66.2045 34.407C67.1865 32.6337 66.2659 31.3496 64.9771 31.3496C63.9952 31.3496 62.8905 31.8999 61.7244 33.0617L62.5836 31.533H60.2515L56.5079 37.9537C56.4465 37.8925 56.3851 37.8314 56.2624 37.8314L56.0783 38.0148C54.4213 39.9716 52.7643 41.5003 51.721 41.5003C51.23 41.5003 50.9231 41.1334 51.4755 40.2162L55.2191 33.6732H53.8689C53.9303 32.6949 52.9484 31.3496 51.4141 31.3496C50.1867 31.3496 48.4069 32.328 47.425 34.0401L45.0315 38.1983C44.8474 38.076 44.6633 37.9537 44.5405 37.8925L44.3564 38.076C42.6994 40.0328 40.6128 41.5615 38.3421 41.5615C36.7464 41.5615 35.7645 39.9716 37.176 37.5868L37.8511 36.425C38.2807 36.4861 38.7103 36.5473 39.2013 36.5473C41.6561 36.5473 44.4792 35.2631 46.3203 32.0834C46.9954 30.9215 47.2409 29.882 47.2409 28.9648C47.2409 26.8857 45.8907 25.4792 44.1723 25.4792C42.8835 25.4792 41.3492 26.3965 40.3059 28.1698L36.685 34.407C35.3349 33.6732 34.5984 32.3891 34.5984 31.105C34.5984 30.0043 35.0894 28.9647 36.0713 28.1698L35.3349 26.8245C33.6779 27.9864 32.9414 29.5762 32.9414 31.1661C32.9414 33.0006 33.9847 34.7739 35.8872 35.7523L35.2121 36.9753C33.5551 39.7882 34.5371 42.9068 37.8511 42.9068C40.4287 42.9068 42.3925 41.7449 43.9882 40.2162C43.4972 41.6838 44.2337 42.9068 45.8907 42.9068C46.8113 42.9068 47.9773 42.2953 49.1434 41.378C49.2661 42.2953 50.0026 42.9068 51.1686 42.9068C52.2733 42.9068 53.5007 42.2341 54.6668 41.1946L53.8076 42.6622H56.1397L59.6992 36.4861C63.2587 32.0222 64.8544 32.6337 63.811 34.3459L60.8039 39.6047C59.8219 41.3169 60.497 42.9068 62.3995 42.9068C63.6269 42.9068 65.0385 42.0507 66.3886 40.8277C66.0818 42.1118 66.6955 42.9068 67.8615 42.9068C68.9662 42.9068 70.255 41.9895 71.2983 41.0111L70.0095 43.2125C66.8796 44.1298 64.8544 45.4139 64.8544 47.1872C64.8544 49.3886 68.2911 49.8778 69.9482 47.0038L71.7279 43.9463C73.6918 43.3348 75.5943 42.1118 77.6195 40.1551C77.3127 43.396 81.6087 44.1298 84.2476 40.8277H84.7386C85.5978 40.8277 86.7638 40.522 87.8071 39.9105L86.2729 42.601H88.6049L92.1645 36.425C95.724 31.9611 97.3196 32.5726 96.2763 34.2847L93.2692 39.5436C92.2872 41.2557 92.9623 42.8456 94.8648 42.8456C96.7673 42.8456 98.9767 40.7665 100.941 38.5652C100.879 38.3817 100.45 38.0148 100.143 37.8925ZM42.2084 29.2094C42.8835 28.0475 43.6813 27.4972 44.2951 27.4972C45.1542 27.4972 45.5838 28.0475 45.5838 28.9036C45.5838 31.0438 42.9449 34.9574 39.324 34.9574H38.833L42.2084 29.2094ZM50.4322 38.2594C49.0206 40.4608 47.6091 41.5003 46.6885 41.5003C46.1976 41.5003 45.8907 41.1334 46.443 40.2162L49.6957 34.5905C50.9231 32.4503 53.4393 33.0006 52.2733 35.0797L50.4322 38.2594ZM68.107 46.698C67.6161 47.5541 66.8182 47.4318 66.8182 46.8203C66.8182 46.2088 67.3706 45.5362 69.1503 44.8636L68.107 46.698ZM83.818 38.0148H83.6953C82.9588 38.0148 82.3451 38.6263 82.3451 39.4213C82.3451 39.727 82.4065 39.9716 82.5906 40.2162V40.2774C81.4859 42.173 78.847 41.8061 80.1971 39.3601L81.9769 36.3027L83.0816 34.407C84.7386 31.6553 86.9479 32.756 85.5364 35.1408L83.818 38.0148Z" fill="white"/>
      <path d="M154.088 38.6884C153.965 38.3215 153.536 37.9546 153.229 37.8935L153.045 38.0769C152.185 39.0553 151.142 39.9726 150.221 40.5841C150.958 38.3827 150.774 34.9583 152.247 32.0232L150.528 31.1059C149.546 32.4512 147.46 35.4475 145.373 37.8935L145.189 38.0769C143.532 40.0337 141.875 41.5624 140.832 41.5624C140.341 41.5624 139.85 41.0733 139.85 39.9726V38.9942C141.507 39.1776 143.225 38.1381 144.33 36.2425L144.944 35.1418C147.092 31.4117 143.593 30.1887 141.2 32.3901L144.514 26.642H142.182L135.554 38.1381C135.431 38.0158 135.247 37.8935 135.124 37.8323L134.94 38.0158C133.283 39.9726 131.135 41.5013 129.478 41.5013C128.067 41.5013 127.207 40.5841 128.251 38.7496L130.644 34.5914C131.994 32.2678 134.388 32.6958 132.976 35.0806L132.669 35.631H134.572L134.879 35.0806C136.106 32.9404 134.94 31.3505 133.038 31.3505C131.135 31.3505 129.662 32.3289 128.68 34.0411L126.409 37.9546C126.348 37.9546 126.287 37.8935 126.287 37.8935L126.103 38.0769C124.446 40.0337 122.789 41.5624 121.745 41.5624C121.254 41.5624 120.947 41.1956 121.5 40.2783L126.471 31.5951H124.139L120.027 38.8107C118.247 40.4006 116.897 41.3178 116.467 41.1344C115.915 40.8898 116.467 40.0337 116.774 39.5445L121.316 31.6563H118.984L114.442 39.4222C113.951 39.8503 113.399 40.2783 112.969 40.6452C113.706 38.4438 113.522 35.0195 114.994 32.0843L113.276 31.1671C112.294 32.5123 106.955 39.6057 104.807 42.0516C104.991 42.3574 105.359 42.602 105.666 42.8466C107.016 41.3178 111.435 35.631 112.233 34.5303C111.312 36.9151 111.803 41.2567 109.594 41.2567C108.796 41.2567 108.489 40.4006 108.489 40.4006L107.016 41.1344C107.016 41.1344 107.446 43.03 109.594 43.03C109.839 43.03 110.023 43.03 110.269 42.9689H110.33C111.496 42.7854 112.662 42.2962 113.767 41.5013C113.767 42.4185 114.319 43.03 115.301 43.03C116.59 43.03 118.002 41.8682 119.106 40.8287C118.861 42.0516 119.597 43.03 121.07 43.03C122.543 43.03 124.139 41.8682 125.673 40.3394C125.673 41.8682 126.9 43.03 128.803 43.03C130.705 43.03 132.547 41.9905 134.204 40.5841L132.915 42.8466H135.247L137.886 38.2604V40.0949C137.886 42.0516 138.254 43.0912 140.157 43.0912C142.059 43.0912 144.268 41.0121 146.232 38.8107C147.583 37.282 148.687 35.6921 149.546 34.5914C148.626 36.9762 149.117 41.3178 146.907 41.3178C146.11 41.3178 145.803 40.4618 145.803 40.4618L144.33 41.1956C144.33 41.1956 144.759 43.0912 146.907 43.0912C147.153 43.0912 147.337 43.0912 147.583 43.03H147.644C149.976 42.602 152.369 40.7064 154.088 38.6884ZM138.622 36.854L139.297 35.6921C141.998 31.962 143.839 33.0016 142.98 34.408L141.875 36.3036C141.2 37.5266 139.175 38.3827 138.622 36.854Z" fill="white"/>
      <path d="M154.026 40.2781C153.29 40.2781 152.676 40.8896 152.676 41.6233C152.676 42.3571 153.229 42.9686 154.026 42.9686C154.763 42.9686 155.377 42.4183 155.377 41.6233C155.377 40.8896 154.763 40.2781 154.026 40.2781Z" fill="white"/>
      <path d="M154.149 39.3602H156.481L163.785 26.7023H161.452L154.149 39.3602Z" fill="white"/>
      <path d="M4.21956 4.7506C4.21956 4.93405 4.15818 5.11749 4.09681 5.30094C4.03544 5.48439 3.9127 5.66783 3.78996 5.79013C3.66722 5.91243 3.4831 6.03473 3.29899 6.15703C3.11488 6.21818 2.8694 6.27933 2.62391 6.27933C2.31706 6.27933 2.07157 6.21817 1.82609 6.09587C1.5806 5.97358 1.33512 5.85129 1.151 5.66784C0.966891 5.48439 0.905521 5.30095 0.782779 5.05635C0.721408 4.81175 0.660034 4.56714 0.660034 4.2614C0.660034 3.71105 0.782776 3.28301 0.966889 2.79382C1.151 2.36578 1.39649 1.93774 1.76472 1.63199C1.88746 1.50969 2.07157 1.32624 2.25568 1.20394C2.43979 1.08164 2.62391 0.959341 2.80802 0.898191C2.99213 0.837042 3.11488 0.714747 3.23762 0.653598C3.36036 0.592449 3.42173 0.59246 3.4831 0.531311L4.3423 1.7543C4.21956 1.81544 4.03545 1.87659 3.85133 1.99889C3.66722 2.06004 3.4831 2.18234 3.29899 2.30463C3.11488 2.42693 2.99213 2.61037 2.86939 2.79382C2.74665 2.97727 2.68528 3.16072 2.68528 3.40531C3.11488 3.40531 3.42173 3.52761 3.72859 3.77221C4.09681 3.95566 4.21956 4.32256 4.21956 4.7506ZM9.06787 4.7506C9.06787 4.93405 9.0065 5.11749 8.94513 5.30094C8.88376 5.48439 8.76101 5.66783 8.63827 5.79013C8.51553 5.91243 8.33142 6.03473 8.14731 6.15703C7.96319 6.21818 7.7177 6.27933 7.47222 6.27933C7.16537 6.27933 6.91988 6.21817 6.6744 6.09587C6.42892 5.97358 6.18343 5.85129 5.99932 5.66784C5.87658 5.48439 5.75383 5.30095 5.63109 5.05635C5.56972 4.81175 5.50835 4.56714 5.50835 4.2614C5.50835 3.71105 5.63109 3.28301 5.8152 2.79382C5.99932 2.36578 6.2448 1.93774 6.61303 1.63199C6.73577 1.50969 6.91988 1.32624 7.104 1.20394C7.28811 1.08164 7.47222 0.959341 7.65634 0.898191C7.84045 0.837042 7.96319 0.714747 8.08593 0.653598C8.20867 0.592449 8.27005 0.59246 8.33142 0.531311L9.19061 1.7543C9.06787 1.81544 8.88375 1.87659 8.69964 1.99889C8.51553 2.06004 8.33142 2.18234 8.14731 2.30463C7.96319 2.42693 7.84045 2.61037 7.71771 2.79382C7.59496 2.97727 7.5336 3.16072 7.5336 3.40531C7.96319 3.40531 8.27005 3.52761 8.5769 3.77221C8.88376 3.95566 9.06787 4.32256 9.06787 4.7506Z" fill="white"/>
      <path d="M171.763 40.7673C171.763 40.5838 171.824 40.4004 171.885 40.2169C171.947 40.0335 172.069 39.85 172.192 39.7277C172.315 39.6054 172.499 39.4831 172.683 39.3608C172.867 39.2997 173.113 39.2385 173.358 39.2385C173.665 39.2385 173.911 39.2997 174.156 39.422C174.402 39.5443 174.647 39.6666 174.831 39.85C175.015 40.0335 175.077 40.2169 175.199 40.4615C175.261 40.7061 175.322 40.9507 175.322 41.2564C175.322 41.8068 175.199 42.2348 175.015 42.724C174.831 43.1521 174.586 43.5801 174.217 43.8859C174.095 44.0082 173.911 44.1916 173.726 44.3139C173.542 44.4362 173.358 44.5585 173.174 44.6196C172.99 44.6808 172.867 44.8031 172.745 44.8643C172.622 44.9254 172.56 44.9254 172.499 44.9865L171.64 43.7636C171.763 43.7024 171.947 43.6413 172.131 43.519C172.315 43.4578 172.499 43.3355 172.683 43.2132C172.867 43.0909 172.99 42.9075 173.113 42.724C173.236 42.5406 173.297 42.3571 173.297 42.1125C172.867 42.1125 172.56 41.9902 172.254 41.7456C171.947 41.5622 171.763 41.1953 171.763 40.7673ZM166.976 40.7673C166.976 40.5838 167.037 40.4004 167.098 40.2169C167.16 40.0335 167.282 39.85 167.405 39.7277C167.528 39.6054 167.712 39.4831 167.896 39.3608C168.08 39.2997 168.326 39.2385 168.571 39.2385C168.878 39.2385 169.124 39.2997 169.369 39.422C169.615 39.5443 169.86 39.6666 170.044 39.85C170.167 40.0335 170.29 40.2169 170.412 40.4615C170.474 40.7061 170.535 40.9507 170.535 41.2564C170.535 41.8068 170.412 42.2348 170.228 42.724C170.044 43.1521 169.799 43.5801 169.43 43.8859C169.308 44.0082 169.124 44.1916 168.94 44.3139C168.755 44.4362 168.571 44.5585 168.387 44.6196C168.203 44.6808 168.08 44.8031 167.958 44.8643C167.835 44.9254 167.773 44.9254 167.712 44.9865L166.853 43.7636C167.037 43.7024 167.16 43.6413 167.344 43.519C167.528 43.4578 167.712 43.3355 167.896 43.2132C168.08 43.0909 168.203 42.9075 168.326 42.724C168.449 42.5406 168.51 42.3571 168.51 42.1125C168.08 42.1125 167.773 41.9902 167.467 41.7456C167.098 41.5622 166.976 41.1953 166.976 40.7673Z" fill="white"/>
    </symbol>
</svg>